<svg width="25" height="25" viewBox="0 0 25 25" fill="none" xmlns="http://www.w3.org/2000/svg">
    <path d="M22.714 10.4599H21.875V10.4167H12.5V14.5834H18.3869C17.5281 17.0089 15.2203 18.75 12.5 18.75C9.0484 18.75 6.24996 15.9516 6.24996 12.5C6.24996 9.04848 9.0484 6.25004 12.5 6.25004C14.0932 6.25004 15.5427 6.85108 16.6463 7.83285L19.5927 4.8865C17.7323 3.15264 15.2437 2.08337 12.5 2.08337C6.74736 2.08337 2.0833 6.74744 2.0833 12.5C2.0833 18.2526 6.74736 22.9167 12.5 22.9167C18.2526 22.9167 22.9166 18.2526 22.9166 12.5C22.9166 11.8016 22.8448 11.1198 22.714 10.4599Z" fill="#FBC02D"/>
    <path d="M3.28433 7.6516L6.70673 10.1615C7.63277 7.86879 9.87548 6.25004 12.5 6.25004C14.0932 6.25004 15.5427 6.85108 16.6463 7.83285L19.5927 4.8865C17.7322 3.15264 15.2437 2.08337 12.5 2.08337C8.49892 2.08337 5.02912 4.34223 3.28433 7.6516Z" fill="#E53935"/>
    <path d="M12.5 22.9167C15.1906 22.9167 17.6354 21.887 19.4838 20.2125L16.2599 17.4844C15.214 18.2766 13.914 18.75 12.5 18.75C9.79061 18.75 7.49009 17.0224 6.62342 14.6115L3.22655 17.2286C4.95051 20.6021 8.45155 22.9167 12.5 22.9167Z" fill="#4CAF50"/>
    <path d="M22.714 10.4599L22.7057 10.4166H21.875H12.5V14.5833H18.387C17.9744 15.7484 17.225 16.7531 16.2583 17.4849C16.2588 17.4843 16.2593 17.4843 16.2599 17.4838L19.4838 20.2119C19.2557 20.4192 22.9166 17.7083 22.9166 12.5C22.9166 11.8015 22.8448 11.1198 22.714 10.4599Z" fill="#1565C0"/>
</svg>
