<svg width="28" height="28" viewBox="0 0 28 28" fill="none" xmlns="http://www.w3.org/2000/svg">
    <path d="M17.9999 9.99938V14.9994C17.9999 15.795 18.3159 16.5581 18.8785 17.1207C19.4411 17.6833 20.2042 17.9994 20.9999 17.9994C21.7955 17.9994 22.5586 17.6833 23.1212 17.1207C23.6838 16.5581 23.9999 15.795 23.9999 14.9994V13.9994C23.9997 11.7424 23.2361 9.55186 21.8331 7.78391C20.4302 6.01596 18.4704 4.7746 16.2725 4.26168C14.0746 3.74875 11.7678 3.99442 9.7272 4.95875C7.68662 5.92307 6.03225 7.54933 5.03311 9.5731C4.03397 11.5969 3.74882 13.8991 4.22402 16.1055C4.69923 18.3119 5.90683 20.2926 7.65049 21.7256C9.39414 23.1587 11.5713 23.9597 13.8279 23.9985C16.0846 24.0373 18.288 23.3116 20.0799 21.9394M17.9999 13.9994C17.9999 16.2085 16.209 17.9994 13.9999 17.9994C11.7907 17.9994 9.99986 16.2085 9.99986 13.9994C9.99986 11.7902 11.7907 9.99938 13.9999 9.99938C16.209 9.99938 17.9999 11.7902 17.9999 13.9994Z" stroke="white" stroke-linecap="round" stroke-linejoin="round"/>
</svg>
