<svg width="24" height="24" viewBox="0 0 24 24" fill="none" xmlns="http://www.w3.org/2000/svg">
    <path d="M7.08 20.698L6.81998 21.1252L6.82595 21.1287L7.08 20.698ZM5.59 20.3375L5.73262 20.8169L5.74573 20.8126L5.59 20.3375ZM3.57 20.9384L3.42742 20.4591L3.42013 20.4614L3.57 20.9384ZM2.75 20.1572L2.27082 20.0141L2.26819 20.0236L2.75 20.1572ZM3.42 17.9139L2.94871 17.7469L2.94451 17.7587L2.94091 17.7708L3.42 17.9139ZM3.35 17.0125L2.91069 17.2513L2.91704 17.263L2.924 17.2743L3.35 17.0125ZM11.98 13.307L11.9729 13.807H11.98V13.307ZM11.98 10.7431L11.9728 11.2431H11.98V10.7431ZM7.37 13.307V13.807L7.37705 13.8069L7.37 13.307ZM12.02 1.5C5.91671 1.5 1.5 6.48844 1.5 12.015H2.5C2.5 7.0058 6.50329 2.5 12.02 2.5V1.5ZM22.5 11.985C22.5 6.39272 17.9879 1.5 12.02 1.5V2.5C17.4121 2.5 21.5 6.92126 21.5 11.985H22.5ZM12 22.5C17.1966 22.5 22.5 18.4784 22.5 11.985H21.5C21.5 17.8501 16.7234 21.5 12 21.5V22.5ZM6.82595 21.1287C8.37074 22.04 10.2802 22.5 12 22.5V21.5C10.4398 21.5 8.70926 21.0787 7.33405 20.2674L6.82595 21.1287ZM5.74573 20.8126C6.05493 20.7113 6.29763 20.8071 6.82001 21.1251L7.33999 20.271C6.84237 19.968 6.22507 19.6032 5.43427 19.8624L5.74573 20.8126ZM3.71256 21.4177L5.73256 20.8167L5.44744 19.8583L3.42744 20.4592L3.71256 21.4177ZM2.26819 20.0236C2.14599 20.4642 2.26794 20.8961 2.57332 21.1781C2.87323 21.455 3.30504 21.5458 3.71987 21.4154L3.42013 20.4614C3.32496 20.4913 3.27177 20.4619 3.25168 20.4433C3.24015 20.4327 3.23101 20.4188 3.22584 20.3996C3.2208 20.381 3.21654 20.3459 3.23181 20.2909L2.26819 20.0236ZM2.94091 17.7708L2.27091 20.0142L3.22909 20.3003L3.89909 18.057L2.94091 17.7708ZM2.924 17.2743C2.99282 17.3863 3.01649 17.5556 2.94871 17.7469L3.89129 18.0809C4.04351 17.6512 4.02718 17.1595 3.776 16.7508L2.924 17.2743ZM1.5 12.015C1.5 13.7929 2.01697 15.6069 2.91069 17.2513L3.78931 16.7738C2.96303 15.2534 2.5 13.6022 2.5 12.015H1.5ZM11.9871 12.807C11.547 12.8008 11.2 12.4493 11.2 12.015H10.2C10.2 13.0029 10.993 13.7931 11.9729 13.8069L11.9871 12.807ZM12.76 12.025C12.76 12.4532 12.4106 12.807 11.98 12.807V13.807C12.9694 13.807 13.76 12.999 13.76 12.025H12.76ZM11.98 11.2431C12.4132 11.2431 12.76 11.5894 12.76 12.025H13.76C13.76 11.0385 12.9668 10.2431 11.98 10.2431V11.2431ZM11.2 12.015C11.2 11.588 11.5567 11.2371 11.9728 11.2431L11.9872 10.2432C11.0033 10.2291 10.2 11.04 10.2 12.015H11.2ZM16.59 12.807C16.1594 12.807 15.81 12.4532 15.81 12.025H14.81C14.81 12.999 15.6006 13.807 16.59 13.807V12.807ZM17.37 12.025C17.37 12.4532 17.0206 12.807 16.59 12.807V13.807C17.5794 13.807 18.37 12.999 18.37 12.025H17.37ZM16.59 11.2431C17.0232 11.2431 17.37 11.5894 17.37 12.025H18.37C18.37 11.0385 17.5768 10.2431 16.59 10.2431V11.2431ZM15.81 12.025C15.81 11.5894 16.1569 11.2431 16.59 11.2431V10.2431C15.6032 10.2431 14.81 11.0385 14.81 12.025H15.81ZM5.59 12.025C5.59 13.0015 6.39315 13.807 7.37 13.807V12.807C6.94685 12.807 6.59 12.4507 6.59 12.025H5.59ZM7.37 10.2431C6.38315 10.2431 5.59 11.0385 5.59 12.025H6.59C6.59 11.5894 6.93685 11.2431 7.37 11.2431V10.2431ZM9.15 12.025C9.15 11.0385 8.35685 10.2431 7.37 10.2431V11.2431C7.80315 11.2431 8.15 11.5894 8.15 12.025H9.15ZM7.37705 13.8069C8.3545 13.7931 9.15 13.0054 9.15 12.025H8.15C8.15 12.4468 7.8055 12.8008 7.36295 12.807L7.37705 13.8069Z" fill="black"/>
</svg>
