<svg width="26" height="26" viewBox="0 0 26 26" fill="none" xmlns="http://www.w3.org/2000/svg">
    <path fill-rule="evenodd" clip-rule="evenodd" d="M2.16666 13.0162C2.16666 7.30934 6.7275 2.16663 13.0217 2.16663C19.175 2.16663 23.8333 7.21169 23.8333 12.9837C23.8333 19.6779 18.3733 23.8333 13 23.8333C11.2233 23.8333 9.25166 23.3559 7.67 22.4228C7.1175 22.0865 6.65166 21.837 6.05583 22.0323L3.8675 22.6832C3.315 22.8568 2.81666 22.4228 2.97916 21.837L3.705 19.4067C3.82416 19.0703 3.8025 18.7123 3.62916 18.4302C2.6975 16.716 2.16666 14.839 2.16666 13.0162ZM11.5917 13.0162C11.5917 13.7866 12.2092 14.405 12.9783 14.4158C13.7475 14.4158 14.365 13.7866 14.365 13.0271C14.365 12.2568 13.7475 11.6383 12.9783 11.6383C12.22 11.6275 11.5917 12.2568 11.5917 13.0162ZM16.5858 13.0271C16.5858 13.7866 17.2033 14.4158 17.9725 14.4158C18.7417 14.4158 19.3592 13.7866 19.3592 13.0271C19.3592 12.2568 18.7417 11.6383 17.9725 11.6383C17.2033 11.6383 16.5858 12.2568 16.5858 13.0271ZM7.98416 14.4158C7.22583 14.4158 6.5975 13.7866 6.5975 13.0271C6.5975 12.2568 7.215 11.6383 7.98416 11.6383C8.75333 11.6383 9.37083 12.2568 9.37083 13.0271C9.37083 13.7866 8.75333 14.405 7.98416 14.4158Z" fill="white"/>
</svg>
