<svg width="24" height="24" viewBox="0 0 24 24" fill="none" xmlns="http://www.w3.org/2000/svg">
    <path d="M19.7695 11.6456L19.3897 11.9708L19.3943 11.9761L19.7695 11.6456ZM19.6373 16.3339L20.003 16.675L20.0104 16.667L20.0175 16.6586L19.6373 16.3339ZM16.7372 17.747L16.696 17.2487L16.6948 17.2488L16.7372 17.747ZM7.26375 17.747L7.32043 17.2502L7.31268 17.2493L7.30491 17.2487L7.26375 17.747ZM4.36367 16.3339L3.98346 16.6586L3.99045 16.6668L3.99779 16.6747L4.36367 16.3339ZM4.23049 11.6456L3.85571 11.3146L3.85499 11.3154L4.23049 11.6456ZM6.577 4.51186L6.18993 4.19532L6.18697 4.199L6.577 4.51186ZM17.5125 4.62466L17.1164 4.9299L17.1176 4.93135L17.5125 4.62466ZM9.96318 19.2279L9.85968 18.7387L9.85066 18.7407L9.96318 19.2279ZM9.07367 20.0608H8.57367V20.0738L8.57434 20.0867L9.07367 20.0608ZM14.0092 19.2279L14.1217 18.7407L14.1127 18.7387L14.0092 19.2279ZM14.8987 20.0608L15.398 20.0867L15.3987 20.0738V20.0608H14.8987ZM14.204 21.2352L13.9187 20.8245L13.9074 20.8324L13.8966 20.8408L14.204 21.2352ZM12.4906 21.9664L12.5548 22.4623L12.5623 22.4612L12.4906 21.9664ZM11.4828 21.9664L11.4112 22.4612L11.4148 22.4617L11.4828 21.9664ZM9.76938 21.2342L10.0776 20.8405L10.0658 20.8312L10.0534 20.8227L9.76938 21.2342ZM20.1493 11.3204C19.8062 10.9197 19.5775 10.5697 19.4304 10.191C19.2838 9.8135 19.2071 9.37869 19.2071 8.79633H18.2071C18.2071 9.4699 18.2963 10.0332 18.4983 10.5531C18.6998 11.0718 19.0023 11.5184 19.3897 11.9708L20.1493 11.3204ZM21 13.956C21 13.0202 20.8116 12.0722 20.1447 11.3151L19.3943 11.9761C19.8346 12.476 20 13.1414 20 13.956H21ZM20.0175 16.6586C20.6745 15.8894 21 14.9427 21 13.956H20C20 14.7178 19.751 15.4309 19.2571 16.0092L20.0175 16.6586ZM16.7784 18.2453C17.9878 18.1453 19.1656 17.5728 20.003 16.675L19.2717 15.9929C18.6024 16.7105 17.6552 17.1694 16.696 17.2487L16.7784 18.2453ZM12.0005 18.4937C13.6158 18.4937 15.2055 18.3794 16.7797 18.2452L16.6948 17.2488C15.1264 17.3825 13.5715 17.4937 12.0005 17.4937V18.4937ZM7.20707 18.2438C8.80156 18.4257 10.3924 18.4937 12.0005 18.4937V17.4937C10.4203 17.4937 8.86854 17.4268 7.32043 17.2502L7.20707 18.2438ZM3.99779 16.6747C4.83435 17.5729 6.01227 18.1453 7.2226 18.2453L7.30491 17.2487C6.34464 17.1694 5.39769 16.7105 4.72954 15.9931L3.99779 16.6747ZM3 13.956C3 14.9431 3.32674 15.8897 3.98346 16.6586L4.74388 16.0092C4.2497 15.4306 4 14.7174 4 13.956H3ZM3.85499 11.3154C3.18965 12.0721 3 13.0197 3 13.956H4C4 13.1419 4.16616 12.476 4.60598 11.9757L3.85499 11.3154ZM4.79392 8.79633C4.79392 9.38249 4.72162 9.81729 4.57773 10.1933C4.4339 10.5692 4.20691 10.9169 3.85571 11.3146L4.60527 11.9766C5.00741 11.5212 5.31214 11.0722 5.51169 10.5507C5.71117 10.0294 5.79392 9.4661 5.79392 8.79633H4.79392ZM4.79392 8.3703V8.79633H5.79392V8.3703H4.79392ZM6.18697 4.199C5.24894 5.36837 4.79392 6.57978 4.79392 8.3703H5.79392C5.79392 6.7969 6.17772 5.80867 6.96702 4.82473L6.18697 4.199ZM11.9558 1.5C9.77523 1.5 7.57264 2.50457 6.18994 4.19533L6.96405 4.82839C8.14949 3.37883 10.0635 2.5 11.9558 2.5V1.5ZM12.0452 1.5H11.9558V2.5H12.0452V1.5ZM17.9085 4.31943C16.5458 2.55139 14.2706 1.5 12.0452 1.5V2.5C13.9801 2.5 15.9547 3.42264 17.1164 4.9299L17.9085 4.31943ZM19.2071 8.3703C19.2071 6.63161 18.8003 5.46779 17.9074 4.31798L17.1176 4.93135C17.8625 5.89053 18.2071 6.8337 18.2071 8.3703H19.2071ZM19.2071 8.79633V8.3703H18.2071V8.79633H19.2071ZM9.85066 18.7407C9.60208 18.7981 9.29948 18.9025 9.04898 19.0996C8.78185 19.3098 8.57367 19.6294 8.57367 20.0608H9.57367C9.57367 19.9887 9.59657 19.9412 9.66736 19.8855C9.75476 19.8167 9.89692 19.7564 10.0757 19.7151L9.85066 18.7407ZM14.1127 18.7387C13.9371 18.7016 13.6065 18.6815 13.2546 18.6688C12.8832 18.6553 12.4337 18.6486 11.9862 18.6486C11.5387 18.6486 11.0891 18.6553 10.7178 18.6688C10.3659 18.6815 10.0353 18.7016 9.8597 18.7387L10.0667 19.7171C10.141 19.7014 10.3786 19.6817 10.7541 19.6681C11.1102 19.6552 11.5472 19.6486 11.9862 19.6486C12.4252 19.6486 12.8622 19.6552 13.2182 19.6681C13.5937 19.6817 13.8313 19.7014 13.9057 19.7171L14.1127 18.7387ZM15.3987 20.0608C15.3987 19.6294 15.1905 19.3098 14.9234 19.0996C14.6729 18.9025 14.3703 18.7981 14.1217 18.7407L13.8967 19.7151C14.0754 19.7564 14.2176 19.8167 14.305 19.8855C14.3758 19.9412 14.3987 19.9887 14.3987 20.0608H15.3987ZM14.4892 21.6458C14.9794 21.3054 15.3637 20.7491 15.398 20.0867L14.3994 20.035C14.384 20.3313 14.2058 20.6251 13.9187 20.8245L14.4892 21.6458ZM12.5623 22.4612C13.2657 22.3592 13.9384 22.0761 14.5114 21.6295L13.8966 20.8408C13.4617 21.1798 12.9518 21.3943 12.4188 21.4716L12.5623 22.4612ZM11.4148 22.4617C11.7916 22.5135 12.1721 22.5118 12.5548 22.4622L12.4263 21.4705C12.1253 21.5096 11.8339 21.5099 11.5508 21.471L11.4148 22.4617ZM9.46111 21.6278C10.0336 22.0761 10.7068 22.3593 11.4112 22.4612L11.5544 21.4715C11.0205 21.3942 10.5109 21.1798 10.0776 20.8405L9.46111 21.6278ZM8.57434 20.0867C8.60868 20.7492 8.99309 21.3059 9.48535 21.6457L10.0534 20.8227C9.76647 20.6246 9.58836 20.3313 9.573 20.035L8.57434 20.0867Z" fill="black"/>
</svg>
