<svg width="216" height="223" viewBox="0 0 216 223" fill="none" xmlns="http://www.w3.org/2000/svg">
    <g opacity="0.2">
        <path fill-rule="evenodd" clip-rule="evenodd" d="M23.3335 140.175C23.3335 78.7164 72.4502 23.3334 140.234 23.3334C206.5 23.3334 256.667 77.6649 256.667 139.825C256.667 211.916 197.867 256.667 140 256.667C120.867 256.667 99.6335 251.526 82.6002 241.477C76.6502 237.855 71.6335 235.168 65.2168 237.271L41.6502 244.281C35.7002 246.151 30.3335 241.477 32.0835 235.168L39.9002 208.995C41.1835 205.373 40.9502 201.517 39.0835 198.479C29.0502 180.018 23.3335 159.805 23.3335 140.175ZM124.833 140.175C124.833 148.471 131.483 155.131 139.767 155.248C148.05 155.248 154.7 148.471 154.7 140.292C154.7 131.996 148.05 125.336 139.767 125.336C131.6 125.22 124.833 131.996 124.833 140.175ZM178.617 140.292C178.617 148.471 185.267 155.248 193.55 155.248C201.834 155.248 208.484 148.471 208.484 140.292C208.484 131.996 201.834 125.336 193.55 125.336C185.267 125.336 178.617 131.996 178.617 140.292ZM85.9835 155.248C77.8168 155.248 71.0502 148.471 71.0502 140.292C71.0502 131.996 77.7002 125.336 85.9835 125.336C94.2668 125.336 100.917 131.996 100.917 140.292C100.917 148.471 94.2668 155.131 85.9835 155.248Z" fill="#302D87"/>
    </g>
</svg>
