<svg width="207" height="214" viewBox="0 0 207 214" fill="none" xmlns="http://www.w3.org/2000/svg">
    <g opacity="0.3">
        <path opacity="0.4" d="M101.625 6.58337C72.0408 6.58337 47.9896 30.6346 47.9896 60.2188C47.9896 89.2384 70.6858 112.725 100.27 113.741C101.173 113.628 102.077 113.628 102.754 113.741C102.98 113.741 103.093 113.741 103.319 113.741C103.432 113.741 103.432 113.741 103.545 113.741C132.451 112.725 155.148 89.2384 155.26 60.2188C155.26 30.6346 131.209 6.58337 101.625 6.58337Z" fill="#302D87"/>
        <path d="M158.987 143.777C127.483 122.775 76.1058 122.775 44.3763 143.777C30.0358 153.375 22.1317 166.36 22.1317 180.249C22.1317 194.138 30.0358 207.01 44.2633 216.495C60.0717 227.11 80.8483 232.417 101.625 232.417C122.402 232.417 143.178 227.11 158.987 216.495C173.214 206.897 181.118 194.025 181.118 180.023C181.005 166.135 173.214 153.262 158.987 143.777Z" fill="#302D87"/>
        <path opacity="0.4" d="M225.72 66.8808C227.527 88.7866 211.945 107.982 190.378 110.58C190.265 110.58 190.265 110.58 190.152 110.58H189.813C189.135 110.58 188.458 110.58 187.893 110.805C176.94 111.37 166.891 107.87 159.325 101.433C170.956 91.0449 177.618 75.4624 176.263 58.5249C175.473 49.3787 172.311 41.0229 167.568 33.9091C171.859 31.7637 176.828 30.4087 181.909 29.957C204.04 28.0374 223.801 44.5233 225.72 66.8808Z" fill="#302D87"/>
        <path d="M248.304 171.329C247.4 182.282 240.4 191.767 228.656 198.203C217.365 204.413 203.137 207.349 189.022 207.01C197.152 199.671 201.895 190.525 202.798 180.814C203.927 166.812 197.265 153.375 183.941 142.648C176.376 136.663 167.568 131.921 157.97 128.42C182.925 121.194 214.316 126.049 233.625 141.632C244.013 149.987 249.32 160.489 248.304 171.329Z" fill="#302D87"/>
    </g>
</svg>
