<svg width="30" height="30" viewBox="0 0 30 30" fill="none" xmlns="http://www.w3.org/2000/svg">
    <path d="M15 27.5999C14.625 27.5999 14.25 27.5124 13.9375 27.3374C11.6 26.0624 7.4875 24.7124 4.9125 24.3749L4.55 24.3249C2.9125 24.1249 1.5625 22.5874 1.5625 20.9249V5.82489C1.5625 4.83739 1.95 3.93739 2.6625 3.28739C3.375 2.63739 4.3 2.32489 5.275 2.41239C8.025 2.62489 12.175 3.99989 14.525 5.47489L14.825 5.64989C14.9125 5.69989 15.1 5.69989 15.175 5.66239L15.375 5.53739C17.725 4.06239 21.875 2.66239 24.6375 2.42489C24.6625 2.42489 24.7625 2.42489 24.7875 2.42489C25.7 2.33739 26.6375 2.66239 27.3375 3.31239C28.05 3.96239 28.4375 4.86239 28.4375 5.84989V20.9374C28.4375 22.6124 27.0875 24.1374 25.4375 24.3374L25.025 24.3874C22.45 24.7249 18.325 26.0874 16.0375 27.3499C15.7375 27.5249 15.375 27.5999 15 27.5999ZM4.975 4.27489C4.575 4.27489 4.2125 4.41239 3.925 4.67489C3.6125 4.96239 3.4375 5.37489 3.4375 5.82489V20.9249C3.4375 21.6624 4.075 22.3749 4.7875 22.4749L5.1625 22.5249C7.975 22.8999 12.2875 24.3124 14.7875 25.6749C14.9 25.7249 15.0625 25.7374 15.125 25.7124C17.625 24.3249 21.9625 22.8999 24.7875 22.5249L25.2125 22.4749C25.925 22.3874 26.5625 21.6624 26.5625 20.9249V5.83739C26.5625 5.37489 26.3875 4.97489 26.075 4.67489C25.75 4.38739 25.3375 4.24989 24.875 4.27489C24.85 4.27489 24.75 4.27489 24.725 4.27489C22.3375 4.48739 18.4875 5.77489 16.3875 7.08739L16.1875 7.22489C15.5 7.64989 14.525 7.64989 13.8625 7.23739L13.5625 7.06239C11.425 5.74989 7.575 4.47489 5.125 4.27489C5.075 4.27489 5.025 4.27489 4.975 4.27489Z" fill="#292D32"/>
    <path d="M15 26.5498C14.4875 26.5498 14.0625 26.1248 14.0625 25.6123V6.8623C14.0625 6.3498 14.4875 5.9248 15 5.9248C15.5125 5.9248 15.9375 6.3498 15.9375 6.8623V25.6123C15.9375 26.1373 15.5125 26.5498 15 26.5498Z" fill="#292D32"/>
    <path d="M9.6875 11.5498H6.875C6.3625 11.5498 5.9375 11.1248 5.9375 10.6123C5.9375 10.0998 6.3625 9.6748 6.875 9.6748H9.6875C10.2 9.6748 10.625 10.0998 10.625 10.6123C10.625 11.1248 10.2 11.5498 9.6875 11.5498Z" fill="#292D32"/>
    <path d="M10.625 15.2998H6.875C6.3625 15.2998 5.9375 14.8748 5.9375 14.3623C5.9375 13.8498 6.3625 13.4248 6.875 13.4248H10.625C11.1375 13.4248 11.5625 13.8498 11.5625 14.3623C11.5625 14.8748 11.1375 15.2998 10.625 15.2998Z" fill="#292D32"/>
</svg>
