<svg width="18" height="18" viewBox="0 0 18 18" fill="none" xmlns="http://www.w3.org/2000/svg">
    <path fill-rule="evenodd" clip-rule="evenodd" d="M16.896 0.396861C16.6031 0.103968 16.1282 0.103969 15.8353 0.396862L9 7.23221L2.16465 0.396863C1.87176 0.10397 1.39688 0.103971 1.10399 0.396863L0.396884 1.10397C0.103991 1.39686 0.103991 1.87174 0.396884 2.16463L7.23223 8.99998L0.396849 15.8354C0.103956 16.1283 0.103955 16.6031 0.396849 16.896L1.10396 17.6031C1.39685 17.896 1.87172 17.896 2.16462 17.6031L9 10.7677L15.8354 17.6031C16.1283 17.896 16.6031 17.896 16.896 17.6031L17.6031 16.896C17.896 16.6031 17.896 16.1283 17.6031 15.8354L10.7678 8.99998L17.6031 2.16463C17.896 1.87174 17.896 1.39686 17.6031 1.10397L16.896 0.396861Z" fill="#6979F8"/>
</svg>
