<svg width="22" height="22" viewBox="0 0 22 22" fill="none" xmlns="http://www.w3.org/2000/svg">
    <path d="M15.9958 15.8584C14.4558 15.8584 13.035 15.1342 12.1092 13.8601C11.8892 13.5576 11.9533 13.1268 12.2558 12.8976C12.5583 12.6684 12.9892 12.7418 13.2183 13.0443C13.8875 13.9518 14.8958 14.4743 15.9958 14.4743C17.9117 14.4743 19.4792 12.9159 19.4792 10.9909C19.4792 9.0659 17.9208 7.50758 15.9958 7.50758C14.6942 7.50758 13.4658 8.20425 12.7967 9.31342L10.3675 13.3559C9.45083 14.8868 7.77334 15.8309 5.99501 15.8309C3.31834 15.8309 1.13666 13.6492 1.13666 10.9726C1.13666 8.29591 3.31834 6.11426 5.99501 6.11426C7.53501 6.11426 8.95583 6.83842 9.88167 8.11258C10.1017 8.41508 10.0375 8.84591 9.735 9.07507C9.42333 9.30424 9.00167 9.2309 8.77251 8.9284C8.10334 8.0209 7.09501 7.49841 5.99501 7.49841C4.07917 7.49841 2.51166 9.05676 2.51166 10.9818C2.51166 12.9068 4.07001 14.4651 5.99501 14.4651C7.29668 14.4651 8.525 13.7684 9.19417 12.6592L11.6233 8.61674C12.54 7.08591 14.2175 6.14176 15.9958 6.14176C18.6725 6.14176 20.8542 8.32341 20.8542 11.0001C20.8542 13.6767 18.6725 15.8584 15.9958 15.8584Z" fill="#0084F4"/>
    <path d="M5.95833 12.8334C6.97086 12.8334 7.79167 12.0126 7.79167 11.0001C7.79167 9.98756 6.97086 9.16675 5.95833 9.16675C4.94581 9.16675 4.125 9.98756 4.125 11.0001C4.125 12.0126 4.94581 12.8334 5.95833 12.8334Z" fill="#4EAEFF"/>
    <path d="M16.0417 12.8334C17.0542 12.8334 17.875 12.0126 17.875 11.0001C17.875 9.98756 17.0542 9.16675 16.0417 9.16675C15.0291 9.16675 14.2083 9.98756 14.2083 11.0001C14.2083 12.0126 15.0291 12.8334 16.0417 12.8334Z" fill="#4EAEFF"/>
</svg>
