<svg width="22" height="22" viewBox="0 0 22 22" fill="none" xmlns="http://www.w3.org/2000/svg">
    <path d="M19.25 7.10413H2.75C2.37417 7.10413 2.0625 6.79246 2.0625 6.41663C2.0625 6.04079 2.37417 5.72913 2.75 5.72913H19.25C19.6258 5.72913 19.9375 6.04079 19.9375 6.41663C19.9375 6.79246 19.6258 7.10413 19.25 7.10413Z" fill="#6979F8"/>
    <path d="M16.5 11.6875H5.5C5.12417 11.6875 4.8125 11.3758 4.8125 11C4.8125 10.6242 5.12417 10.3125 5.5 10.3125H16.5C16.8758 10.3125 17.1875 10.6242 17.1875 11C17.1875 11.3758 16.8758 11.6875 16.5 11.6875Z" fill="#6979F8"/>
    <path d="M12.8333 16.2709H9.16666C8.79083 16.2709 8.47916 15.9592 8.47916 15.5834C8.47916 15.2075 8.79083 14.8959 9.16666 14.8959H12.8333C13.2092 14.8959 13.5208 15.2075 13.5208 15.5834C13.5208 15.9592 13.2092 16.2709 12.8333 16.2709Z" fill="#6979F8"/>
</svg>
