<svg width="20" height="20" viewBox="0 0 20 20" fill="none" xmlns="http://www.w3.org/2000/svg">
    <path d="M18.3333 7.24159C18.3333 8.23325 18.175 9.14992 17.9 9.99992H2.10001C1.82501 9.14992 1.66667 8.23325 1.66667 7.24159C1.66667 4.66659 3.74167 2.58325 6.30001 2.58325C7.80834 2.58325 9.15834 3.31659 10 4.44159C10.8417 3.31659 12.1917 2.58325 13.7 2.58325C16.2583 2.58325 18.3333 4.66659 18.3333 7.24159Z" fill="#F03535"/>
    <path d="M17.9 10C16.5833 14.1667 12.525 16.6583 10.5167 17.3417C10.2333 17.4417 9.76667 17.4417 9.48334 17.3417C7.47501 16.6583 3.41667 14.1667 2.10001 10H17.9Z" fill="#F03535"/>
</svg>
