<svg width="22" height="22" viewBox="0 0 22 22" fill="none" xmlns="http://www.w3.org/2000/svg">
    <path d="M15.5833 19.9375H6.41666C2.37416 19.9375 1.14583 18.7092 1.14583 14.6667V7.33333C1.14583 3.29083 2.37416 2.0625 6.41666 2.0625H15.5833C19.6258 2.0625 20.8542 3.29083 20.8542 7.33333V14.6667C20.8542 18.7092 19.6258 19.9375 15.5833 19.9375ZM6.41666 3.4375C3.13499 3.4375 2.52083 4.06083 2.52083 7.33333V14.6667C2.52083 17.9392 3.13499 18.5625 6.41666 18.5625H15.5833C18.865 18.5625 19.4792 17.9392 19.4792 14.6667V7.33333C19.4792 4.06083 18.865 3.4375 15.5833 3.4375H6.41666Z" fill="#6979F8"/>
    <path d="M17.4167 8.02075H12.8333C12.4575 8.02075 12.1458 7.70909 12.1458 7.33325C12.1458 6.95742 12.4575 6.64575 12.8333 6.64575H17.4167C17.7925 6.64575 18.1042 6.95742 18.1042 7.33325C18.1042 7.70909 17.7925 8.02075 17.4167 8.02075Z" fill="#6979F8"/>
    <path d="M17.4167 11.6875H13.75C13.3742 11.6875 13.0625 11.3758 13.0625 11C13.0625 10.6242 13.3742 10.3125 13.75 10.3125H17.4167C17.7925 10.3125 18.1042 10.6242 18.1042 11C18.1042 11.3758 17.7925 11.6875 17.4167 11.6875Z" fill="#6979F8"/>
    <path d="M17.4167 15.3542H15.5833C15.2075 15.3542 14.8958 15.0426 14.8958 14.6667C14.8958 14.2909 15.2075 13.9792 15.5833 13.9792H17.4167C17.7925 13.9792 18.1042 14.2909 18.1042 14.6667C18.1042 15.0426 17.7925 15.3542 17.4167 15.3542Z" fill="#6979F8"/>
    <path d="M7.79167 11.0366C6.49917 11.0366 5.44501 9.98243 5.44501 8.68993C5.44501 7.39743 6.49917 6.34326 7.79167 6.34326C9.08417 6.34326 10.1383 7.39743 10.1383 8.68993C10.1383 9.98243 9.08417 11.0366 7.79167 11.0366ZM7.79167 7.71826C7.26001 7.71826 6.82001 8.15826 6.82001 8.68993C6.82001 9.22159 7.26001 9.6616 7.79167 9.6616C8.32334 9.6616 8.76334 9.22159 8.76334 8.68993C8.76334 8.15826 8.32334 7.71826 7.79167 7.71826Z" fill="#6979F8"/>
    <path d="M11 15.6566C10.6517 15.6566 10.3492 15.3908 10.3125 15.0333C10.2117 14.0433 9.41417 13.2458 8.41501 13.1541C7.99334 13.1174 7.57167 13.1174 7.15001 13.1541C6.15084 13.2458 5.35334 14.0341 5.25251 15.0333C5.21584 15.4091 4.87667 15.6933 4.50084 15.6474C4.12501 15.6108 3.85001 15.2716 3.88667 14.8958C4.05167 13.2458 5.36251 11.9349 7.02167 11.7883C7.52584 11.7424 8.03917 11.7424 8.54334 11.7883C10.1933 11.9441 11.5133 13.2549 11.6783 14.8958C11.715 15.2716 11.44 15.6108 11.0642 15.6474C11.0458 15.6566 11.0183 15.6566 11 15.6566Z" fill="#6979F8"/>
</svg>
