<svg width="20" height="20" viewBox="0 0 20 20" fill="none" xmlns="http://www.w3.org/2000/svg">
    <path fill-rule="evenodd" clip-rule="evenodd" d="M2.37856 1.15005C2.28788 1.05338 2.16128 0.998535 2.02877 0.998535C1.89627 0.998535 1.76967 1.05338 1.67899 1.15005L1.14931 1.68005C1.05269 1.77079 0.997883 1.89747 0.997883 2.03005C0.997883 2.16264 1.05269 2.28932 1.14931 2.38005L3.74773 5.00005C2.05625 6.13216 0.765553 7.77014 0.0599735 9.68005C0.0226499 9.78273 0.00239364 9.89083 1.0041e-05 10.0001C-0.000518915 10.1063 0.019856 10.2117 0.0599735 10.3101C1.68479 14.3691 5.62406 17.022 9.99392 17.0001C11.6108 16.9846 13.2044 16.6124 14.6611 15.9101L17.6093 18.8501C17.7 18.9467 17.8266 19.0016 17.9591 19.0016C18.0916 19.0016 18.2182 18.9467 18.3089 18.8501L18.8385 18.3201C18.9352 18.2293 18.99 18.1026 18.99 17.9701C18.99 17.8375 18.9352 17.7108 18.8385 17.6201L2.37856 1.15005ZM9.99392 13.0001C8.33808 13.0001 6.99575 11.6569 6.99575 10.0001C6.99827 9.50955 7.12552 9.02776 7.36552 8.60005L11.3631 12.6001C10.9473 12.8458 10.4766 12.9834 9.99392 13.0001ZM7.11567 3.41005C12.3846 1.88148 17.9529 4.60243 19.9878 9.70005C20.0041 9.79939 20.0041 9.90071 19.9878 10.0001C19.9911 10.113 19.9706 10.2254 19.9279 10.3301C19.4348 11.6826 18.6382 12.904 17.5993 13.9001L7.11567 3.41005Z" fill="black"/>
</svg>
