<svg width="20" height="14" viewBox="0 0 20 14" fill="none" xmlns="http://www.w3.org/2000/svg">
    <path fill-rule="evenodd" clip-rule="evenodd" d="M9.99391 -0.000410771C14.3881 -0.045569 18.3582 2.61605 19.9878 6.69959C20.004 6.79893 20.004 6.90025 19.9878 6.99959C19.9911 7.11257 19.9706 7.22498 19.9279 7.32959C18.2967 11.3808 14.3588 14.0248 9.99391 13.9996C5.62405 14.0216 1.68478 11.3687 0.0599635 7.30959C0.0198459 7.21119 -0.000528928 7.10586 2.73867e-08 6.99959C0.00127748 6.887 0.0215504 6.77543 0.0599635 6.66959C1.69113 2.61836 5.62899 -0.0256583 9.99391 -0.000410771ZM6.99574 6.99959C6.99574 8.65644 8.33807 9.99959 9.99391 9.99959C10.7891 9.99959 11.5517 9.68352 12.1139 9.12091C12.6762 8.5583 12.9921 7.79524 12.9921 6.99959C12.9921 5.34274 11.6498 3.99959 9.99391 3.99959C8.33807 3.99959 6.99574 5.34274 6.99574 6.99959Z" fill="black"/>
</svg>
