<svg width="30" height="30" viewBox="0 0 30 30" fill="none" xmlns="http://www.w3.org/2000/svg">
    <path d="M15.0124 21.2501C13.9499 21.2501 12.8749 20.9751 12.0374 20.4376L4.5124 15.5251C3.1124 14.6126 2.2749 13.0751 2.2749 11.4001C2.2749 9.72511 3.1124 8.18761 4.5124 7.27511L12.0499 2.3751C13.7249 1.2876 16.3374 1.2876 17.9999 2.3876L25.4874 7.30011C26.8749 8.21261 27.7124 9.75011 27.7124 11.4126C27.7124 13.0751 26.8749 14.6126 25.4874 15.5251L17.9999 20.4376C17.1624 20.9876 16.0874 21.2501 15.0124 21.2501ZM15.0124 3.4376C14.2999 3.4376 13.5874 3.6001 13.0749 3.9501L5.5499 8.85011C4.6749 9.42511 4.1624 10.3501 4.1624 11.4001C4.1624 12.4501 4.6624 13.3751 5.5499 13.9501L13.0749 18.8626C14.1124 19.5376 15.9374 19.5376 16.9749 18.8626L24.4624 13.9501C25.3374 13.3751 25.8374 12.4501 25.8374 11.4001C25.8374 10.3501 25.3374 9.42511 24.4624 8.85011L16.9749 3.9376C16.4499 3.6126 15.7374 3.4376 15.0124 3.4376Z" fill="#292D32"/>
    <path d="M15 28.4376C14.45 28.4376 13.8875 28.3626 13.4375 28.2126L9.44998 26.8876C7.56248 26.2626 6.07498 24.2001 6.08748 22.2126L6.09998 16.3501C6.09998 15.8376 6.52498 15.4126 7.03748 15.4126C7.54998 15.4126 7.97498 15.8376 7.97498 16.3501L7.96248 22.2126C7.96248 23.3876 8.93748 24.7376 10.05 25.1126L14.0375 26.4376C14.5375 26.6001 15.4625 26.6001 15.9625 26.4376L19.95 25.1126C21.0625 24.7376 22.0375 23.3876 22.0375 22.2251V16.4251C22.0375 15.9126 22.4625 15.4876 22.975 15.4876C23.4875 15.4876 23.9125 15.9126 23.9125 16.4251V22.2251C23.9125 24.2126 22.4375 26.2626 20.55 26.9001L16.5625 28.2251C16.1125 28.3626 15.55 28.4376 15 28.4376Z" fill="#292D32"/>
    <path d="M26.75 19.6875C26.2375 19.6875 25.8125 19.2625 25.8125 18.75V11.25C25.8125 10.7375 26.2375 10.3125 26.75 10.3125C27.2625 10.3125 27.6875 10.7375 27.6875 11.25V18.75C27.6875 19.2625 27.2625 19.6875 26.75 19.6875Z" fill="#292D32"/>
</svg>
