<svg width="22" height="22" viewBox="0 0 22 22" fill="none" xmlns="http://www.w3.org/2000/svg">
    <path d="M11.0092 15.5834C10.23 15.5834 9.44167 15.3818 8.8275 14.9876L3.30917 11.3851C2.2825 10.7159 1.66833 9.58843 1.66833 8.36009C1.66833 7.13176 2.2825 6.00426 3.30917 5.33509L8.83667 1.74176C10.065 0.944259 11.9808 0.944259 13.2 1.75093L18.6908 5.35343C19.7083 6.02259 20.3225 7.15009 20.3225 8.36926C20.3225 9.58843 19.7083 10.7159 18.6908 11.3851L13.2 14.9876C12.5858 15.3909 11.7975 15.5834 11.0092 15.5834ZM11.0092 2.52093C10.4867 2.52093 9.96417 2.64009 9.58833 2.89676L4.07 6.49009C3.42833 6.91176 3.0525 7.59009 3.0525 8.36009C3.0525 9.13009 3.41917 9.80842 4.07 10.2301L9.58833 13.8326C10.3492 14.3276 11.6875 14.3276 12.4483 13.8326L17.9392 10.2301C18.5808 9.80842 18.9475 9.13009 18.9475 8.36009C18.9475 7.59009 18.5808 6.91176 17.9392 6.49009L12.4483 2.88759C12.0633 2.64926 11.5408 2.52093 11.0092 2.52093Z" fill="#6979F8"/>
    <path d="M11 20.8542C10.5967 20.8542 10.1842 20.7992 9.85417 20.6892L6.93 19.7175C5.54583 19.2592 4.455 17.7467 4.46417 16.2892L4.47333 11.99C4.47333 11.6142 4.785 11.3025 5.16083 11.3025C5.53667 11.3025 5.84833 11.6142 5.84833 11.99L5.83917 16.2892C5.83917 17.1508 6.55417 18.1408 7.37 18.4158L10.2942 19.3875C10.6608 19.5067 11.3392 19.5067 11.7058 19.3875L14.63 18.4158C15.4458 18.1408 16.1608 17.1508 16.1608 16.2983V12.045C16.1608 11.6692 16.4725 11.3575 16.8483 11.3575C17.2242 11.3575 17.5358 11.6692 17.5358 12.045V16.2983C17.5358 17.7558 16.4542 19.2592 15.07 19.7267L12.1458 20.6983C11.8158 20.7992 11.4033 20.8542 11 20.8542Z" fill="#6979F8"/>
    <path d="M19.6167 14.4375C19.2408 14.4375 18.9292 14.1258 18.9292 13.75V8.25C18.9292 7.87417 19.2408 7.5625 19.6167 7.5625C19.9925 7.5625 20.3042 7.87417 20.3042 8.25V13.75C20.3042 14.1258 19.9925 14.4375 19.6167 14.4375Z" fill="#6979F8"/>
</svg>
