<svg width="18" height="18" viewBox="0 0 18 18" fill="none" xmlns="http://www.w3.org/2000/svg">
    <path d="M9 17.0625C5.07 17.0625 1.875 13.8675 1.875 9.9375C1.875 6.0075 5.07 2.8125 9 2.8125C12.93 2.8125 16.125 6.0075 16.125 9.9375C16.125 13.8675 12.93 17.0625 9 17.0625ZM9 3.9375C5.6925 3.9375 3 6.63 3 9.9375C3 13.245 5.6925 15.9375 9 15.9375C12.3075 15.9375 15 13.245 15 9.9375C15 6.63 12.3075 3.9375 9 3.9375Z" fill="white"/>
    <path d="M9 10.3125C8.6925 10.3125 8.4375 10.0575 8.4375 9.75V6C8.4375 5.6925 8.6925 5.4375 9 5.4375C9.3075 5.4375 9.5625 5.6925 9.5625 6V9.75C9.5625 10.0575 9.3075 10.3125 9 10.3125Z" fill="white"/>
    <path d="M11.25 2.0625H6.75C6.4425 2.0625 6.1875 1.8075 6.1875 1.5C6.1875 1.1925 6.4425 0.9375 6.75 0.9375H11.25C11.5575 0.9375 11.8125 1.1925 11.8125 1.5C11.8125 1.8075 11.5575 2.0625 11.25 2.0625Z" fill="white"/>
</svg>
