<svg width="51" height="51" viewBox="0 0 51 51" fill="none" xmlns="http://www.w3.org/2000/svg">
    <path d="M25.1057 28.3264C19.6997 28.3264 15.1067 29.8984 12.1067 32.3624V36.9454H38.1067V32.3624C35.1067 29.8984 30.5127 28.3264 25.1057 28.3264ZM48.9767 25.9744L25.0427 14.9454L1.11865 25.9744L5.10665 27.7994V30.6064C4.10665 30.8134 4.10365 31.3374 4.10365 31.9604C4.10365 32.3284 4.22565 32.7594 4.45765 33.0174L3.08965 35.9454H7.96965L6.61365 33.0154C6.84165 32.7574 7.02865 32.3774 7.02865 32.0094C7.02865 31.3874 6.10665 30.8124 6.10665 30.6054V28.2684L11.1067 30.5144V30.3154C14.1067 27.7064 19.3777 26.0504 25.1047 26.0504C30.8337 26.0504 36.1067 27.7064 39.1067 30.3154V30.5144L48.9767 25.9744Z" fill="white"/>
</svg>
